<svg xmlns="http://www.w3.org/2000/svg" width="361.463" height="191.542" viewBox="0 0 361.463 191.542">
  <g id="SquareEyes" transform="translate(-269.6 -182.6)">
    <g id="Group_3" data-name="Group 3" transform="translate(269.6 257.557)">
      <g id="Group_1" data-name="Group 1" transform="translate(245.513 0.264)">
        <path id="Path_1" data-name="Path 1" d="M1219.512,505.2h-15.885v30.448h17.867l-.766,4.7H1198.5V470.5h21.937v4.731h-16.81V500.5h15.885Z" transform="translate(-1198.5 -469.627)" fill="#fff"/>
        <path id="Path_2" data-name="Path 2" d="M1308.977,540.382V513.37a4.659,4.659,0,0,0-.238-1.533L1296,470.5h5.6c3.938,13.532,8.8,30.025,10.017,35.6h.106c1.3-5.709,6.317-22.862,9.938-35.6h5.418L1314.316,512a6.3,6.3,0,0,0-.211,1.692v26.695Z" transform="translate(-1270.23 -469.627)" fill="#fff"/>
        <path id="Path_3" data-name="Path 3" d="M1453.412,505.2h-15.885v30.448h17.867l-.767,4.7H1432.4V470.5h21.937v4.731h-16.81V500.5h15.885Z" transform="translate(-1370.579 -469.627)" fill="#fff"/>
        <path id="Path_4" data-name="Path 4" d="M1541.5,518.9v3.859c0,7.533,2.775,11.5,8.22,11.5,5.55,0,8.141-3.383,8.141-13.189,0-8.643-1.929-12.4-9.2-18-7.453-5.788-11.074-9.119-11.074-19.4,0-8.616,2.564-16.545,12.4-16.466,8.669.079,11.947,5.445,11.947,15.2V485.3h-5.1v-2.775c0-6.449-1.348-10.757-6.951-10.757-5.683,0-7.136,5-7.136,11.074,0,7.559,1.533,10.07,8.141,15.171,9.171,7.057,12.158,10.863,12.158,22.413,0,9.753-2.352,18.4-13.268,18.4-10.149,0-13.374-6.793-13.374-16.017V518.9Z" transform="translate(-1447.091 -467.198)" fill="#fff"/>
      </g>
      <g id="Group_2" data-name="Group 2" transform="translate(0 0)">
        <path id="Path_5" data-name="Path 5" d="M280.357,516.656v4.308c0,5.207,1.559,8.088,5.656,8.088,4.2,0,5.286-3.991,5.286-8.511,0-7.506-1.612-9.832-9.118-15.753-7.506-5.947-11.524-9.726-11.524-20.087,0-9.2,2.775-18.5,15.409-18.5,12.9,0,14.88,9.2,14.88,16.783v3.727H290.269v-3.436c0-4.863-.819-7.823-4.414-7.823-3.489,0-4.414,3.039-4.414,7.665,0,4.943.925,7.348,7.083,11.841,10.466,7.744,13.665,12.211,13.665,23.92,0,9.911-3.462,19.294-16.519,19.294-12.924,0-16.07-8.246-16.07-17.444v-4.15h10.757Z" transform="translate(-269.6 -466.2)" fill="#fff"/>
        <path id="Path_6" data-name="Path 6" d="M449.89,486.258V518.9c0,13.4-5.683,19.717-17.523,19.717-11.365,0-16.466-6.5-16.466-19.532V486.179c0-13.374,6.74-19.479,17.153-19.479C443.626,466.673,449.89,472.805,449.89,486.258ZM426.869,485.2v35.153c0,5.815,2.088,8.537,5.973,8.537,4.176,0,6.053-2.537,6.053-8.7V485.122c0-5.55-1.692-8.616-6.079-8.616C428.957,476.505,426.869,479.281,426.869,485.2Zm18.924,45.8,9.171,7.268-6.317,7.533L437.2,536.82Z" transform="translate(-377.232 -466.568)" fill="#fff"/>
        <path id="Path_7" data-name="Path 7" d="M584.684,470.5v53.152c0,5.1,1.665,8.008,5.841,8.008,4.282,0,5.656-3.251,5.656-7.982V470.5h10.784v52.94c0,11.021-5,17.946-16.651,17.946-11.1,0-16.413-6-16.413-17.92V470.5Z" transform="translate(-493.472 -469.363)" fill="#fff"/>
        <path id="Path_8" data-name="Path 8" d="M730.427,521.6l-2.458,18.686H717L728.259,470.4h15.224l11.682,69.882H743.906L741.157,521.6Zm9.462-9.911c-1.586-11.867-3.119-23.127-3.912-31.029h-.4c-.291,5.762-2.405,20.721-3.806,31.029Z" transform="translate(-598.75 -469.29)" fill="#fff"/>
        <path id="Path_9" data-name="Path 9" d="M891.784,509.115v31.241H881V470.5h14.933c10.625,0,16.916,4.255,16.916,16.836v2.669c0,10.731-4.414,13.48-7.11,14.59,4.07,1.9,6.4,4.837,6.4,14.325,0,5.894-.106,17.233.634,21.462H902.356c-.925-4.229-.74-15.7-.74-20.774,0-8.511-1.084-10.466-7.348-10.466h-2.484Zm0-8.881h2.484c5.709,0,7.8-2.141,7.8-9.753v-2.405c0-5.392-1.11-8.7-7.215-8.7h-3.04v20.854Z" transform="translate(-719.404 -469.363)" fill="#fff"/>
        <path id="Path_10" data-name="Path 10" d="M1057.54,508.454h-15.356v22.017h17.708l-1.374,9.911H1031.4V470.5h26.986v9.991h-16.2v18.052h15.356Z" transform="translate(-830.053 -469.363)" fill="#fff"/>
      </g>
    </g>
    <g id="Group_4" data-name="Group 4" transform="translate(309.351 349.931)">
      <path id="Path_11" data-name="Path 11" d="M432.687,831.6c-1.057,2.617-2.96,5-6.9,5-3.859,0-5.788-2.59-5.788-6.925,0-4.678,2.617-11.471,8.484-11.471,3.674,0,5.418,2.273,5.471,5.55h-1.269c-.185-2.749-1.559-4.387-4.308-4.387-4.652,0-7.03,5.868-7.03,10.229,0,3.383,1.4,5.815,4.52,5.815,2.59,0,4.229-1.216,5.471-3.806Z" transform="translate(-420 -817.539)" fill="#fff"/>
      <path id="Path_12" data-name="Path 12" d="M498.284,841.957c0,3.7-1.824,8.564-6.423,8.564-2.987,0-4.361-2.115-4.361-5,0-3.568,2.035-8.326,6.528-8.326C496.777,837.2,498.284,839.05,498.284,841.957ZM488.8,845.42c0,2.194.846,3.965,3.224,3.965,3.489,0,4.969-4.2,4.969-7.348,0-2.273-.978-3.727-3.145-3.727C490.407,838.31,488.8,842.407,488.8,845.42Z" transform="translate(-469.659 -831.517)" fill="#fff"/>
      <path id="Path_13" data-name="Path 13" d="M546.05,841.455c.555-2.7.74-3.621.846-4.044h1.189c-.079.449-.264,1.427-.423,2.247a4.525,4.525,0,0,1,4.176-2.458c2.167,0,3.885,1.454,3.145,4.943l-1.718,8.167H552l1.692-8.088c.423-1.982.106-3.832-2.114-3.832-2.749,0-4.15,2.379-4.784,5.392l-1.374,6.555H544.2Z" transform="translate(-511.373 -831.517)" fill="#fff"/>
      <path id="Path_14" data-name="Path 14" d="M605.377,841.455c.555-2.7.74-3.621.846-4.044h1.189c-.079.449-.264,1.427-.423,2.247a4.525,4.525,0,0,1,4.176-2.458c2.167,0,3.885,1.454,3.145,4.943l-1.718,8.167h-1.3l1.692-8.088c.423-1.982.106-3.832-2.114-3.832-2.749,0-4.15,2.379-4.784,5.392l-1.374,6.555H603.5Z" transform="translate(-555 -831.517)" fill="#fff"/>
      <path id="Path_15" data-name="Path 15" d="M664.754,843.919a7.356,7.356,0,0,0-.185,1.744c0,2.247.925,3.7,3.066,3.7,2.484,0,3.3-1.8,3.806-2.7h1.242a5.483,5.483,0,0,1-5.233,3.806c-2.96,0-4.15-2.114-4.15-4.731,0-3.859,2.088-8.643,6.343-8.643,2.881,0,3.991,2.009,3.991,4.387a11.5,11.5,0,0,1-.317,2.405h-8.563Zm7.533-1.084a6.041,6.041,0,0,0,.132-1.269c0-2.088-.951-3.357-2.96-3.357-2.326,0-3.859,2.141-4.467,4.6h7.295Z" transform="translate(-598.995 -831.444)" fill="#fff"/>
      <path id="Path_16" data-name="Path 16" d="M728.989,846.609c-.951,2.537-2.7,4.017-5.418,4.017-2.775,0-4.07-1.956-4.07-4.81,0-3.621,2.009-8.616,6.4-8.616,2.775,0,4.017,1.744,3.912,4.255h-1.189c-.026-1.374-.423-3.092-2.907-3.092-3.2,0-4.916,4.176-4.916,7.321,0,2.458,1.084,3.806,3.066,3.806,1.744,0,2.96-.925,3.859-2.881Z" transform="translate(-640.341 -831.517)" fill="#fff"/>
      <path id="Path_17" data-name="Path 17" d="M775.938,827.112h2.3l.846-3.912H780.3l-.846,3.912h2.854l-.238,1.084h-2.854l-1.982,9.145c-.264,1.216-.026,1.744,1.11,1.744a5.42,5.42,0,0,0,1.507-.238l-.211,1.057a4.531,4.531,0,0,1-1.612.291c-1.454,0-2.511-.529-2.035-2.881L778,828.2h-2.3Z" transform="translate(-681.687 -821.218)" fill="#fff"/>
      <path id="Path_18" data-name="Path 18" d="M812.522,821.594h1.216l-2.722,12.9H809.8Zm1.216-5.894h1.216l-.529,2.484H813.21Z" transform="translate(-706.774 -815.7)" fill="#fff"/>
      <path id="Path_19" data-name="Path 19" d="M841.377,841.455c.555-2.7.74-3.621.846-4.044h1.189c-.079.449-.264,1.427-.423,2.247a4.525,4.525,0,0,1,4.176-2.458c2.167,0,3.885,1.454,3.145,4.943l-1.718,8.167h-1.3l1.692-8.088c.423-1.982.106-3.832-2.114-3.832-2.749,0-4.15,2.379-4.784,5.392l-1.374,6.555H839.5Z" transform="translate(-728.624 -831.517)" fill="#fff"/>
      <path id="Path_20" data-name="Path 20" d="M904.77,849.7c-.9,4.1-2.379,6.026-5.815,6.026-3.383,0-4.15-2.114-4.07-3.806H896.1c.053,1.929,1.163,2.722,3.013,2.722,2.775,0,3.753-1.9,4.546-5.18l.4-1.692a4.547,4.547,0,0,1-4.2,2.537c-2.484,0-3.727-1.8-3.727-4.731,0-3.489,2.167-8.378,6.343-8.378,2.194,0,3.172,1.216,3.33,2.352.159-.74.423-1.771.5-2.141h1.189c-.159.608-.476,1.9-.819,3.647Zm-7.374-4.176c0,2.114.714,3.647,2.749,3.647,2.749,0,4.2-2.722,4.784-5.418.581-2.775.423-5.365-2.643-5.365C899.061,838.363,897.4,842.618,897.4,845.526Z" transform="translate(-769.367 -831.517)" fill="#fff"/>
      <path id="Path_21" data-name="Path 21" d="M995.279,819.1h9.568l-.264,1.136H996.31l-1.427,6.872h7.771l-.264,1.136h-7.771l-1.824,8.722h-1.3Z" transform="translate(-840.45 -818.201)" fill="#fff"/>
      <path id="Path_22" data-name="Path 22" d="M1051.922,821.594h1.216l-2.722,12.9H1049.2Zm1.242-5.894h1.216l-.529,2.484h-1.216Z" transform="translate(-882.899 -815.7)" fill="#fff"/>
      <path id="Path_23" data-name="Path 23" d="M1079,834.492l3.965-18.792h1.216l-3.964,18.792Z" transform="translate(-904.823 -815.7)" fill="#fff"/>
      <path id="Path_24" data-name="Path 24" d="M1110.456,841.5c.449-2.114.714-3.41.846-4.017h1.189c-.053.37-.212,1.348-.4,2.088a4.294,4.294,0,0,1,3.753-2.273,2.559,2.559,0,0,1,2.828,2.458,4.743,4.743,0,0,1,4.1-2.458c1.929,0,3.542,1.216,2.828,4.652l-1.771,8.458h-1.216l1.718-8.273c.4-1.85.238-3.647-1.824-3.647-2.22,0-3.621,2.141-4.123,4.467l-1.586,7.48h-1.216l1.665-8.035c.476-2.326.264-3.912-1.8-3.912-1.982,0-3.568,1.824-4.176,4.652l-1.559,7.268H1108.5Z" transform="translate(-926.526 -831.591)" fill="#fff"/>
      <path id="Path_25" data-name="Path 25" d="M1198.579,859.5l-.264,1.189H1192.5l.264-1.189Z" transform="translate(-988.324 -847.923)" fill="#fff"/>
      <path id="Path_26" data-name="Path 26" d="M1235.28,819.1h1.3l-3.542,16.73h8.722l-.476,1.137H1231.5Z" transform="translate(-1017.017 -818.201)" fill="#fff"/>
      <path id="Path_27" data-name="Path 27" d="M1297.484,841.957c0,3.7-1.824,8.564-6.423,8.564-2.987,0-4.361-2.115-4.361-5,0-3.568,2.035-8.326,6.528-8.326C1295.977,837.2,1297.484,839.05,1297.484,841.957Zm-9.489,3.462c0,2.194.846,3.965,3.224,3.965,3.489,0,4.969-4.2,4.969-7.348,0-2.273-.978-3.727-3.145-3.727C1289.607,838.31,1287.995,842.407,1287.995,845.42Z" transform="translate(-1057.627 -831.517)" fill="#fff"/>
      <path id="Path_28" data-name="Path 28" d="M1347.389,838c.714,6.343,1.084,10.387,1.189,11.709h.026c.4-.951,2.379-4.652,6.29-11.709h1.322c-.053.079-7.057,12.819-7.083,12.9h-1.506L1346.2,838Z" transform="translate(-1101.401 -832.106)" fill="#fff"/>
      <path id="Path_29" data-name="Path 29" d="M1396.154,843.919a7.363,7.363,0,0,0-.185,1.744c0,2.247.925,3.7,3.066,3.7,2.484,0,3.3-1.8,3.806-2.7h1.242a5.483,5.483,0,0,1-5.233,3.806c-2.96,0-4.15-2.114-4.15-4.731,0-3.859,2.088-8.643,6.343-8.643,2.881,0,3.991,2.009,3.991,4.387a11.487,11.487,0,0,1-.317,2.405h-8.563Zm7.533-1.084a6.032,6.032,0,0,0,.132-1.269c0-2.088-.952-3.357-2.96-3.357-2.326,0-3.859,2.141-4.467,4.6h7.295Z" transform="translate(-1137.082 -831.444)" fill="#fff"/>
      <path id="Path_30" data-name="Path 30" d="M1451.3,841.772c.423-2.009.687-3.542.846-4.361h1.163c-.026.291-.264,1.692-.476,2.722a5.451,5.451,0,0,1,4.837-2.934l-.291,1.348c-2.907.211-4.678,2.247-5.286,5.233l-1.374,6.528H1449.5Z" transform="translate(-1177.398 -831.517)" fill="#fff"/>
      <path id="Path_31" data-name="Path 31" d="M1490.812,846.5a2.863,2.863,0,0,0,3.172,3.013c1.877,0,2.987-1.137,2.987-2.617,0-1.189-.608-1.956-2.643-2.854-2.035-.925-3.066-1.586-3.066-3.33,0-1.824,1.3-3.41,3.912-3.41a3.48,3.48,0,0,1,3.832,3.806h-1.189a2.516,2.516,0,0,0-2.828-2.722,2.216,2.216,0,0,0-2.484,2.22c0,1.084.529,1.507,2.326,2.326,2.035.925,3.436,1.8,3.436,3.806,0,2.088-1.4,3.912-4.467,3.912-2.775,0-4.255-1.612-4.2-4.1h1.216Z" transform="translate(-1206.896 -831.591)" fill="#fff"/>
    </g>
    <g id="Group_5" data-name="Group 5" transform="translate(322.487 190.291)">
      <path id="Path_32" data-name="Path 32" d="M469.7,248.941,507.073,211.7l1.85,10.969-10.7,21.409Z" transform="translate(-469.7 -211.7)" fill="#fff"/>
    </g>
    <g id="Group_6" data-name="Group 6" transform="translate(405.109 182.6)">
      <path id="Path_33" data-name="Path 33" d="M829.875,205.357,782.3,182.6l1.85,10.942,17.206,16.678Z" transform="translate(-782.3 -182.6)" fill="#fff"/>
    </g>
    <g id="Group_7" data-name="Group 7" transform="translate(320.383 205.552)">
      <path id="Path_34" data-name="Path 34" d="M592.454,269.508l-53.971,9.2-3.885.661-10.916,1.85-1.8.317-56.059,9.541a4.909,4.909,0,0,0-4.017,5.656l3.912,23.021a12.129,12.129,0,0,0,13.982,9.911l38.8-6.608a12.129,12.129,0,0,0,9.911-13.982l-2.484-14.537,10.916-1.85,2.484,14.537a12.129,12.129,0,0,0,13.982,9.911l38.8-6.608a12.129,12.129,0,0,0,9.911-13.982l-3.912-23.021A4.909,4.909,0,0,0,592.454,269.508Z" transform="translate(-461.74 -269.44)" fill="#fff"/>
    </g>
    <g id="Group_8" data-name="Group 8" transform="translate(329.148 226.792)">
      <path id="Path_35" data-name="Path 35" d="M498.812,380.671,494.9,357.729l46.491-7.929,3.912,22.942a.7.7,0,0,1-.555.793L499.6,381.226A.676.676,0,0,1,498.812,380.671Z" transform="translate(-494.9 -349.8)" fill="#1f1f1f"/>
    </g>
    <g id="Group_9" data-name="Group 9" transform="translate(402.73 214.264)">
      <path id="Path_36" data-name="Path 36" d="M777.212,333.271,773.3,310.329l46.491-7.929,3.912,22.942a.7.7,0,0,1-.555.793l-45.17,7.691A.664.664,0,0,1,777.212,333.271Z" transform="translate(-773.3 -302.4)" fill="#1f1f1f"/>
    </g>
    <circle id="Ellipse_1" data-name="Ellipse 1" cx="9.304" cy="9.304" r="9.304" transform="translate(418.536 220.792)" fill="#fff"/>
    <circle id="Ellipse_2" data-name="Ellipse 2" cx="9.304" cy="9.304" r="9.304" transform="translate(343.526 233.188)" fill="#fff"/>
    <circle id="Ellipse_3" data-name="Ellipse 3" cx="2.643" cy="2.643" r="2.643" transform="translate(425.196 227.453)" fill="#fff"/>
    <circle id="Ellipse_4" data-name="Ellipse 4" cx="2.643" cy="2.643" r="2.643" transform="translate(350.239 239.769)" fill="#fff"/>
  </g>
</svg>
